<?xml version="1.0" standalone="no"?>
<!DOCTYPE svg PUBLIC "-//W3C//DTD SVG 20010904//EN"
 "http://www.w3.org/TR/2001/REC-SVG-20010904/DTD/svg10.dtd">
<svg version="1.0" xmlns="http://www.w3.org/2000/svg"
 width="400.000000pt" height="400.000000pt" viewBox="0 0 400.000000 400.000000"
 preserveAspectRatio="xMidYMid meet">
<metadata>
Created by potrace 1.11, written by Peter Selinger 2001-2013
</metadata>
<g transform="translate(0.000000,400.000000) scale(0.100000,-0.100000)"
fill="#000000" stroke="none">
<path d="M319 3762 c-43 -22 -59 -38 -81 -81 l-28 -53 0 -1623 0 -1623 28 -53
c22 -43 38 -59 81 -81 l53 -28 1628 0 1628 0 53 28 c43 22 59 38 81 81 l28 53
0 1623 0 1623 -28 53 c-22 43 -38 59 -81 81 l-53 28 -1628 0 -1628 0 -53 -28z
m1161 -613 c58 -96 84 -124 120 -127 32 -2 37 1 58 39 20 34 27 40 45 34 12
-4 31 -8 43 -9 11 -1 26 -6 33 -10 16 -10 36 8 26 24 -4 6 -15 8 -26 5 -23 -8
-69 35 -69 65 0 18 6 20 60 20 64 0 66 -2 61 -57 -1 -16 4 -23 16 -23 10 0 29
-3 43 -5 21 -5 19 -3 -8 12 -26 13 -32 22 -30 43 3 23 8 25 57 28 49 3 56 1
82 -27 15 -17 32 -31 37 -31 5 0 22 -9 38 -21 16 -11 8 -1 -18 24 -27 25 -48
48 -48 51 0 3 35 6 78 6 61 0 82 -4 102 -20 14 -11 29 -20 34 -20 6 0 20 -10
33 -22 l23 -21 -13 26 c-6 15 -25 32 -42 39 l-30 12 40 4 c23 2 41 -1 43 -8 3
-8 8 -8 18 1 24 20 84 1 120 -38 26 -28 32 -31 27 -14 -3 12 -9 24 -14 27 -5
3 -9 12 -9 20 0 10 13 14 50 14 62 0 77 -19 92 -122 6 -43 19 -85 31 -102 37
-53 24 -138 -23 -155 -26 -9 -30 -14 -24 -36 4 -15 2 -25 -5 -25 -6 0 -11 7
-11 15 0 15 -38 40 -47 31 -3 -3 7 -20 22 -37 21 -25 25 -39 21 -62 -3 -16 -6
-38 -6 -48 0 -17 -8 -19 -73 -19 -67 0 -75 2 -85 23 l-11 22 0 -22 c-1 -22 -3
-23 -138 -22 -115 0 -141 3 -157 17 -18 16 -19 16 -13 0 6 -16 -1 -18 -58 -18
-61 0 -65 -1 -65 -22 0 -20 -5 -17 -40 22 l-40 45 40 -67 c22 -37 40 -70 40
-73 0 -3 -9 -14 -21 -26 -23 -23 -18 -39 6 -19 13 11 15 6 15 -39 l0 -51 -25
16 c-14 9 -25 22 -25 30 0 8 -16 16 -41 20 -22 4 -54 18 -69 31 -26 22 -28 22
-23 3 6 -23 62 -60 91 -60 12 0 26 -6 32 -12 6 -7 21 -26 35 -41 15 -16 25
-40 25 -58 0 -16 5 -29 10 -29 6 0 10 -5 10 -11 0 -22 28 -39 57 -33 39 7 116
-45 149 -103 15 -24 28 -42 31 -39 6 5 -25 65 -45 89 -14 15 -14 19 0 30 8 6
22 24 31 40 15 24 23 27 70 27 51 0 53 -1 81 -46 18 -29 31 -65 34 -95 3 -29
9 -49 17 -49 18 0 26 12 16 24 -5 6 -17 38 -26 70 l-18 60 23 18 c16 13 36 18
64 16 38 -3 42 -6 54 -43 16 -50 19 -52 37 -29 14 19 15 18 34 -5 21 -27 37
-73 47 -136 5 -35 3 -41 -13 -43 -10 -1 -34 -4 -53 -7 -27 -5 -40 -2 -57 15
-13 11 -23 30 -23 40 0 13 -7 20 -20 20 -16 0 -20 -7 -20 -30 0 -16 5 -30 10
-30 6 0 10 5 10 11 0 5 4 8 9 5 13 -8 51 -84 51 -101 0 -8 5 -15 10 -15 6 0
10 8 10 19 0 18 52 51 79 51 7 0 11 -27 11 -75 l0 -74 -30 6 c-40 8 -40 -15 0
-30 28 -11 30 -15 30 -62 0 -50 0 -51 -31 -50 -20 0 -36 8 -48 24 -11 14 -23
21 -30 17 -8 -5 -9 -12 -3 -19 5 -7 12 -24 14 -39 l5 -28 -183 0 c-174 0 -183
1 -189 20 -3 11 -11 20 -16 20 -6 0 -7 -9 -4 -20 6 -20 3 -21 -72 -18 -69 3
-78 5 -82 23 -6 32 -21 68 -26 63 -3 -3 1 -24 9 -46 14 -40 14 -42 -4 -42 -23
0 -23 -1 -20 -277 1 -130 -1 -173 -10 -173 -8 0 -9 -4 -3 -13 5 -6 10 -56 12
-110 3 -98 3 -98 -18 -85 -12 7 -21 16 -21 19 0 4 -17 -9 -37 -27 -39 -36 -60
-37 -95 -6 -22 19 -23 10 -2 -30 11 -22 18 -27 24 -18 4 7 13 9 19 6 16 -10
14 -26 -4 -26 -8 0 -15 -7 -15 -15 0 -8 5 -15 10 -15 6 0 10 4 10 9 0 5 16 19
35 31 24 15 35 29 35 46 0 35 12 29 38 -18 18 -35 22 -59 22 -125 l0 -83 -50
0 c-47 0 -51 2 -70 38 l-20 37 6 -35 5 -35 -69 -3 -69 -3 -16 33 c-10 19 -17
26 -17 16 0 -9 5 -20 10 -23 6 -3 10 -10 10 -16 0 -12 -37 -12 -44 0 -4 5 -19
4 -37 -2 -30 -12 -33 -10 -76 38 l-45 50 27 -47 27 -48 -96 0 -96 0 0 176 c0
96 4 173 9 170 4 -3 16 0 26 7 16 12 15 15 -9 30 -25 17 -26 20 -26 129 0 94
3 113 18 124 16 13 16 13 0 14 -14 0 -18 9 -18 44 0 25 5 48 10 51 6 3 10 13
10 21 0 8 -4 12 -10 9 -17 -10 -12 122 5 155 9 17 20 30 25 30 6 0 10 5 10 11
0 5 -5 7 -10 4 -16 -10 -40 14 -40 39 0 15 3 17 8 8 5 -7 16 -10 25 -6 22 8
21 13 -8 36 -23 18 -25 26 -25 99 0 49 4 79 11 79 35 0 109 -64 109 -96 0 -14
8 -24 21 -27 20 -5 21 -3 14 36 -9 54 -9 56 -1 97 l7 35 -21 -24 c-29 -33 -62
-21 -105 37 -27 37 -35 57 -35 92 0 48 21 90 46 90 24 0 87 -56 108 -95 11
-19 25 -35 33 -35 11 0 8 9 -9 33 -16 22 -23 46 -23 79 0 46 -7 59 -20 38 -20
-33 -79 25 -104 102 -7 21 -17 40 -22 43 -5 4 -9 45 -9 93 l0 86 36 -35 c19
-18 47 -53 62 -76 26 -42 42 -54 42 -32 0 11 -12 28 -78 111 -23 28 -32 49
-29 65 3 17 0 23 -14 23 -18 0 -19 10 -19 152 l0 152 21 -20 c11 -12 31 -50
44 -85 l24 -64 -2 53 c-1 28 -5 52 -9 52 -14 0 -79 141 -76 163 4 31 44 34 75
5 29 -27 57 -82 50 -100 -7 -21 21 -67 53 -83 l29 -15 -26 49 -25 50 31 46
c39 58 39 67 1 30 -39 -37 -55 -29 -92 45 -21 44 -27 77 -19 108 1 1 20 2 44
2 40 0 45 -3 67 -41z m204 25 c11 -30 6 -46 -30 -90 -50 -61 -76 -53 -124 38
-34 64 -31 68 64 68 67 0 85 -3 90 -16z m984 -60 c29 -19 28 -52 -2 -65 -13
-6 -27 -20 -29 -31 -5 -17 -8 -17 -26 -6 -11 7 -28 27 -37 44 -17 30 -17 34 0
59 14 22 23 26 44 20 15 -3 37 -13 50 -21z m22 -214 c0 -10 -9 -24 -20 -30
-15 -8 -19 -17 -15 -31 4 -11 2 -19 -4 -19 -6 0 -11 6 -11 14 0 8 -3 21 -6 29
-5 14 31 57 48 57 4 0 8 -9 8 -20z m15 -41 c10 -15 -1 -23 -20 -15 -9 3 -13
10 -10 16 8 13 22 13 30 -1z m-52 -140 c24 -30 21 -40 -9 -28 -15 5 -29 8 -31
6 -6 -7 9 -37 19 -37 5 0 6 -5 3 -10 -3 -6 -17 -7 -30 -4 -12 3 -26 1 -29 -5
-12 -19 -34 -12 -40 13 -6 25 10 74 29 89 17 13 69 -2 88 -24z m-1352 -442
c-8 -8 -11 0 -10 29 1 39 1 39 11 11 7 -21 7 -32 -1 -40z m828 -7 c-13 -35
-43 -40 -59 -11 -17 33 -12 41 29 41 l40 0 -10 -30z m461 0 c0 -13 -7 -20 -20
-20 -22 0 -23 1 -14 24 9 23 34 20 34 -4z"/>
<path d="M2111 3149 c-24 -20 -23 -36 2 -26 11 4 33 49 24 47 -1 -1 -13 -10
-26 -21z"/>
<path d="M1932 3103 c-6 -2 -10 -9 -6 -14 8 -14 21 -11 28 6 6 15 1 17 -22 8z"/>
<path d="M2440 3088 c0 -25 41 -65 73 -72 37 -9 34 2 -4 16 -17 6 -39 25 -50
42 -12 20 -19 25 -19 14z"/>
<path d="M2290 3064 c0 -6 7 -19 15 -30 8 -10 14 -14 14 -9 0 6 -6 19 -14 29
-8 11 -15 15 -15 10z"/>
<path d="M1753 3041 c1 -15 4 -17 14 -9 17 14 16 28 -1 28 -8 0 -14 -9 -13
-19z"/>
<path d="M2014 2786 c-10 -8 -17 -17 -14 -19 3 -3 16 3 29 14 27 22 15 26 -15
5z"/>
<path d="M2192 2784 c-18 -13 -26 -13 -38 -3 -8 6 -17 9 -21 6 -3 -4 2 -9 11
-13 9 -3 16 -13 16 -22 0 -14 1 -14 13 0 6 8 23 22 37 32 13 9 20 16 14 16 -5
0 -20 -7 -32 -16z"/>
<path d="M2383 2783 c-20 -10 -33 -24 -33 -35 0 -16 6 -14 40 13 55 44 52 51
-7 22z"/>
<path d="M1920 2780 c0 -5 5 -10 10 -10 6 0 28 -18 50 -40 52 -52 52 -36 0 18
-38 41 -60 52 -60 32z"/>
<path d="M2292 2770 c13 -20 28 -27 28 -12 0 10 -22 32 -32 32 -5 0 -3 -9 4
-20z"/>
<path d="M1381 2755 c-1 -36 23 -67 64 -81 53 -18 56 -10 6 16 -26 13 -46 32
-55 53 -11 24 -15 27 -15 12z"/>
<path d="M1765 2720 c3 -5 10 -10 16 -10 5 0 9 5 9 10 0 6 -7 10 -16 10 -8 0
-12 -4 -9 -10z"/>
<path d="M2321 2723 c0 -4 4 -17 9 -28 8 -19 9 -19 9 2 1 12 -3 25 -9 28 -5 3
-10 3 -9 -2z"/>
<path d="M1360 2669 c0 -5 5 -7 10 -4 6 3 10 8 10 11 0 2 -4 4 -10 4 -5 0 -10
-5 -10 -11z"/>
<path d="M1735 2430 c-4 -12 -5 -24 -2 -27 3 -2 8 5 12 17 4 12 5 24 2 27 -3
2 -8 -5 -12 -17z"/>
<path d="M1460 2373 c0 -6 8 -17 18 -24 16 -13 16 -13 2 6 -8 11 -16 22 -17
24 -2 2 -3 0 -3 -6z"/>
<path d="M1738 2263 c11 -21 21 -44 23 -51 3 -8 13 -2 28 18 12 17 20 34 17
38 -4 3 -13 -3 -21 -14 -14 -18 -14 -18 -15 0 0 18 -26 45 -43 46 -4 0 1 -17
11 -37z"/>
<path d="M1892 2256 c1 -10 8 -17 13 -17 15 1 12 24 -3 29 -9 3 -13 -2 -10
-12z"/>
<path d="M1830 1863 c0 -14 13 -28 48 -52 26 -18 32 -19 32 -7 0 9 -4 16 -9
16 -5 0 -23 12 -40 26 -17 14 -31 22 -31 17z"/>
<path d="M2355 1848 c12 -38 46 -68 77 -68 15 0 28 5 28 10 0 6 -7 10 -16 10
-9 0 -32 16 -51 35 -41 41 -47 43 -38 13z"/>
<path d="M1990 1847 c0 -13 60 -57 77 -57 9 0 -19 30 -49 51 -22 16 -28 17
-28 6z"/>
<path d="M1725 1841 c-8 -7 -6 -21 3 -21 5 0 17 6 28 14 18 14 18 15 -4 13
-13 -1 -25 -3 -27 -6z"/>
<path d="M2490 1830 c-7 -13 -7 -20 -1 -20 6 0 15 9 21 20 7 13 7 20 1 20 -6
0 -15 -9 -21 -20z"/>
<path d="M2095 1829 c-4 -6 -5 -13 -2 -16 7 -7 27 6 27 18 0 12 -17 12 -25 -2z"/>
<path d="M2180 1822 c0 -10 33 -42 43 -42 3 0 4 6 1 13 -6 15 -44 40 -44 29z"/>
<path d="M1786 1720 c9 -32 34 -70 46 -70 6 0 23 -14 39 -31 19 -20 29 -26 29
-16 0 8 -19 29 -42 46 -24 18 -51 46 -61 64 -14 26 -16 27 -11 7z"/>
<path d="M1310 1655 c0 -12 24 -55 32 -55 11 0 10 17 -2 41 -9 17 -30 27 -30
14z"/>
<path d="M1725 1620 c3 -5 11 -10 16 -10 6 0 7 5 4 10 -3 6 -11 10 -16 10 -6
0 -7 -4 -4 -10z"/>
<path d="M1360 1585 c0 -8 6 -15 14 -15 7 0 26 -10 42 -22 l29 -22 -25 28
c-34 38 -60 51 -60 31z"/>
<path d="M1750 1596 c0 -2 8 -10 18 -17 15 -13 16 -12 3 4 -13 16 -21 21 -21
13z"/>
<path d="M1451 1581 c-8 -5 -9 -11 -3 -15 5 -3 15 1 22 9 14 16 3 20 -19 6z"/>
<path d="M1790 1525 c0 -15 18 -40 24 -34 3 3 -1 14 -9 25 -8 10 -14 15 -15 9z"/>
<path d="M1320 1494 c1 -16 29 -60 29 -44 0 8 -6 24 -14 34 -8 11 -15 16 -15
10z"/>
<path d="M1830 1469 c0 -5 4 -9 9 -9 5 0 17 -3 27 -7 11 -4 15 -3 11 4 -9 14
-47 24 -47 12z"/>
<path d="M1770 1440 c-9 -6 -10 -10 -3 -10 6 0 15 5 18 10 8 12 4 12 -15 0z"/>
<path d="M1359 1412 c5 -10 16 -24 24 -31 8 -6 20 -25 27 -42 7 -16 14 -28 16
-26 6 5 -17 56 -40 90 -21 30 -42 38 -27 9z"/>
<path d="M1465 1240 c10 -11 20 -20 23 -20 3 0 -3 9 -13 20 -10 11 -20 20 -23
20 -3 0 3 -9 13 -20z"/>
<path d="M1830 1225 c13 -14 25 -23 27 -21 8 8 -22 46 -36 46 -10 0 -7 -8 9
-25z"/>
<path d="M1739 1220 c-31 -25 -12 -26 21 0 14 11 20 20 14 20 -7 0 -22 -9 -35
-20z"/>
<path d="M1870 1165 c0 -8 5 -15 10 -15 6 0 10 7 10 15 0 8 -4 15 -10 15 -5 0
-10 -7 -10 -15z"/>
<path d="M1439 1049 c13 -10 32 -19 44 -19 27 0 15 11 -31 26 l-37 13 24 -20z"/>
<path d="M1592 940 c0 -14 2 -19 5 -12 2 6 2 18 0 25 -3 6 -5 1 -5 -13z"/>
<path d="M1340 916 c0 -2 15 -9 33 -15 29 -10 30 -9 13 4 -18 14 -46 20 -46
11z"/>
</g>
</svg>
